o 
v 179.18354332447052 79.04400163888931 -4.244461536407471
v 179.18354332447052 79.04400163888931 -35.79932737350464
v 179.18354332447052 40.7560014128685 -4.244461536407471
v 179.18354332447052 40.7560014128685 -35.79932737350464
v 140.81645667552948 79.04400163888931 -35.79932737350464
v 140.81645667552948 79.04400163888931 -4.244461536407471
v 140.81645667552948 40.7560014128685 -35.79932737350464
v 140.81645667552948 40.7560014128685 -4.244461536407471
v 140.81645667552948 79.04400163888931 -35.79932737350464
v 179.18354332447052 79.04400163888931 -35.79932737350464
v 140.81645667552948 79.04400163888931 -4.244461536407471
v 179.18354332447052 79.04400163888931 -4.244461536407471
v 140.81645667552948 40.7560014128685 -4.244461536407471
v 179.18354332447052 40.7560014128685 -4.244461536407471
v 140.81645667552948 40.7560014128685 -35.79932737350464
v 179.18354332447052 40.7560014128685 -35.79932737350464
v 140.81645667552948 79.04400163888931 -4.244461536407471
v 179.18354332447052 79.04400163888931 -4.244461536407471
v 140.81645667552948 40.7560014128685 -4.244461536407471
v 179.18354332447052 40.7560014128685 -4.244461536407471
v 179.18354332447052 79.04400163888931 -35.79932737350464
v 140.81645667552948 79.04400163888931 -35.79932737350464
v 179.18354332447052 40.7560014128685 -35.79932737350464
v 140.81645667552948 40.7560014128685 -35.79932737350464
vt 0 1
vt 1 1
vt 0 0
vt 1 0
vt 0 1
vt 1 1
vt 0 0
vt 1 0
vt 0 1
vt 1 1
vt 0 0
vt 1 0
vt 0 1
vt 1 1
vt 0 0
vt 1 0
vt 0 1
vt 1 1
vt 0 0
vt 1 0
vt 0 1
vt 1 1
vt 0 0
vt 1 0
vn 2.606400728225708 0 0
vn 2.606400728225708 0 0
vn 2.606400728225708 0 0
vn 2.606400728225708 0 0
vn -2.606400728225708 0 0
vn -2.606400728225708 0 0
vn -2.606400728225708 0 0
vn -2.606400728225708 0 0
vn 0 2.6117844581604004 0
vn 0 2.6117844581604004 0
vn 0 2.6117844581604004 0
vn 0 2.6117844581604004 0
vn 0 -2.6117844581604004 0
vn 0 -2.6117844581604004 0
vn 0 -2.6117844581604004 0
vn 0 -2.6117844581604004 0
vn 0 0 3.1690833568573
vn 0 0 3.1690833568573
vn 0 0 3.1690833568573
vn 0 0 3.1690833568573
vn 0 0 -3.1690833568573
vn 0 0 -3.1690833568573
vn 0 0 -3.1690833568573
vn 0 0 -3.1690833568573
f 1/1/1 3/3/3 2/2/2
f 3/3/3 4/4/4 2/2/2
f 5/5/5 7/7/7 6/6/6
f 7/7/7 8/8/8 6/6/6
f 9/9/9 11/11/11 10/10/10
f 11/11/11 12/12/12 10/10/10
f 13/13/13 15/15/15 14/14/14
f 15/15/15 16/16/16 14/14/14
f 17/17/17 19/19/19 18/18/18
f 19/19/19 20/20/20 18/18/18
f 21/21/21 23/23/23 22/22/22
f 23/23/23 24/24/24 22/22/22
o 
v 34.878826092360214 154.05435787423448 -35.86082339286804
v 174.04178909730035 154.05435787423448 -35.86082339286804
v 174.04178909730035 127.65430544598894 -35.86082339286804
v 87.50200598042875 127.65430544598894 -35.86082339286804
v 34.878826092360214 127.65430544598894 -35.86082339286804
v 34.878826092360214 154.05435787423448 -35.86082339286804
v 120.8941236946539 -14.054357874234483 -35.86082339286804
v 87.50200598042875 -14.054357874234483 -35.86082339286804
v 87.50200598042875 127.65430544598894 -35.86082339286804
v 34.878826092360214 154.05435787423448 -35.86082339286804
v 174.04178909730035 127.65430544598894 -35.86082339286804
v 120.8941236946539 127.65430544598894 -35.86082339286804
v 120.8941236946539 127.65430544598894 -35.86082339286804
v 120.8941236946539 -14.054357874234483 -35.86082339286804
v 87.50200598042875 127.65430544598894 -35.86082339286804
v 87.50200598042875 127.65430544598894 -35.86082339286804
v 34.878826092360214 154.05435787423448 -35.86082339286804
v 120.8941236946539 127.65430544598894 -35.86082339286804
v 174.04178909730035 127.65430544598894 -4.139176607131958
v 174.04178909730035 154.05435787423448 -4.139176607131958
v 34.878826092360214 154.05435787423448 -4.139176607131958
v 34.878826092360214 154.05435787423448 -4.139176607131958
v 34.878826092360214 127.65430544598894 -4.139176607131958
v 87.50200598042875 127.65430544598894 -4.139176607131958
v 87.50200598042875 127.65430544598894 -4.139176607131958
v 87.50200598042875 -14.054357874234483 -4.139176607131958
v 120.8941236946539 -14.054357874234483 -4.139176607131958
v 120.8941236946539 127.65430544598894 -4.139176607131958
v 174.04178909730035 127.65430544598894 -4.139176607131958
v 34.878826092360214 154.05435787423448 -4.139176607131958
v 87.50200598042875 127.65430544598894 -4.139176607131958
v 120.8941236946539 -14.054357874234483 -4.139176607131958
v 120.8941236946539 127.65430544598894 -4.139176607131958
v 120.8941236946539 127.65430544598894 -4.139176607131958
v 34.878826092360214 154.05435787423448 -4.139176607131958
v 87.50200598042875 127.65430544598894 -4.139176607131958
v 174.04178909730035 154.05435787423448 -35.86082339286804
v 34.878826092360214 154.05435787423448 -35.86082339286804
v 174.04178909730035 154.05435787423448 -4.139176607131958
v 34.878826092360214 154.05435787423448 -35.86082339286804
v 34.878826092360214 154.05435787423448 -4.139176607131958
v 174.04178909730035 154.05435787423448 -4.139176607131958
v 34.878826092360214 154.05435787423448 -35.86082339286804
v 34.878826092360214 127.65430544598894 -35.86082339286804
v 34.878826092360214 154.05435787423448 -4.139176607131958
v 34.878826092360214 127.65430544598894 -35.86082339286804
v 34.878826092360214 127.65430544598894 -4.139176607131958
v 34.878826092360214 154.05435787423448 -4.139176607131958
v 34.878826092360214 127.65430544598894 -35.86082339286804
v 87.50200598042875 127.65430544598894 -35.86082339286804
v 34.878826092360214 127.65430544598894 -4.139176607131958
v 87.50200598042875 127.65430544598894 -35.86082339286804
v 87.50200598042875 127.65430544598894 -4.139176607131958
v 34.878826092360214 127.65430544598894 -4.139176607131958
v 87.50200598042875 127.65430544598894 -35.86082339286804
v 87.50200598042875 -14.054357874234483 -35.86082339286804
v 87.50200598042875 127.65430544598894 -4.139176607131958
v 87.50200598042875 -14.054357874234483 -35.86082339286804
v 87.50200598042875 -14.054357874234483 -4.139176607131958
v 87.50200598042875 127.65430544598894 -4.139176607131958
v 87.50200598042875 -14.054357874234483 -35.86082339286804
v 120.8941236946539 -14.054357874234483 -35.86082339286804
v 87.50200598042875 -14.054357874234483 -4.139176607131958
v 120.8941236946539 -14.054357874234483 -35.86082339286804
v 120.8941236946539 -14.054357874234483 -4.139176607131958
v 87.50200598042875 -14.054357874234483 -4.139176607131958
v 120.8941236946539 -14.054357874234483 -35.86082339286804
v 120.8941236946539 127.65430544598894 -35.86082339286804
v 120.8941236946539 -14.054357874234483 -4.139176607131958
v 120.8941236946539 127.65430544598894 -35.86082339286804
v 120.8941236946539 127.65430544598894 -4.139176607131958
v 120.8941236946539 -14.054357874234483 -4.139176607131958
v 120.8941236946539 127.65430544598894 -35.86082339286804
v 174.04178909730035 127.65430544598894 -35.86082339286804
v 120.8941236946539 127.65430544598894 -4.139176607131958
v 174.04178909730035 127.65430544598894 -35.86082339286804
v 174.04178909730035 127.65430544598894 -4.139176607131958
v 120.8941236946539 127.65430544598894 -4.139176607131958
v 174.04178909730035 127.65430544598894 -35.86082339286804
v 174.04178909730035 154.05435787423448 -35.86082339286804
v 174.04178909730035 127.65430544598894 -4.139176607131958
v 174.04178909730035 154.05435787423448 -35.86082339286804
v 174.04178909730035 154.05435787423448 -4.139176607131958
v 174.04178909730035 127.65430544598894 -4.139176607131958
vt 0.02261306531727314 1
vt 1.0226130485534668 1
vt 1.0226130485534668 0.8429584503173828
vt 0.40075376629829407 0.8429584503173828
vt 0.02261306531727314 0.8429584503173828
vt 0.02261306531727314 1
vt 0.6407034993171692 0
vt 0.40075376629829407 0
vt 0.40075376629829407 0.8429584503173828
vt 0.02261306531727314 1
vt 1.0226130485534668 0.8429584503173828
vt 0.6407034993171692 0.8429584503173828
vt 0.6407034993171692 0.8429584503173828
vt 0.6407034993171692 0
vt 0.40075376629829407 0.8429584503173828
vt 0.40075376629829407 0.8429584503173828
vt 0.02261306531727314 1
vt 0.6407034993171692 0.8429584503173828
vt 1.0226130485534668 0.8429584503173828
vt 1.0226130485534668 1
vt 0.02261306531727314 1
vt 0.02261306531727314 1
vt 0.02261306531727314 0.8429584503173828
vt 0.40075376629829407 0.8429584503173828
vt 0.40075376629829407 0.8429584503173828
vt 0.40075376629829407 0
vt 0.6407034993171692 0
vt 0.6407034993171692 0.8429584503173828
vt 1.0226130485534668 0.8429584503173828
vt 0.02261306531727314 1
vt 0.40075376629829407 0.8429584503173828
vt 0.6407034993171692 0
vt 0.6407034993171692 0.8429584503173828
vt 0.6407034993171692 0.8429584503173828
vt 0.02261306531727314 1
vt 0.40075376629829407 0.8429584503173828
vt 1.0226130485534668 0
vt 0.02261306531727314 0
vt 1.0226130485534668 0.20263424515724182
vt 0.02261306531727314 0
vt 0.02261306531727314 0.20263424515724182
vt 1.0226130485534668 0.20263424515724182
vt 1 0
vt 0.8429584503173828 0
vt 1 0.20263424515724182
vt 0.8429584503173828 0
vt 0.8429584503173828 0.20263424515724182
vt 1 0.20263424515724182
vt 0.02261306531727314 0
vt 0.40075376629829407 0
vt 0.02261306531727314 0.20263424515724182
vt 0.40075376629829407 0
vt 0.40075376629829407 0.20263424515724182
vt 0.02261306531727314 0.20263424515724182
vt 0.8429584503173828 0
vt 0 0
vt 0.8429584503173828 0.20263424515724182
vt 0 0
vt 0 0.20263424515724182
vt 0.8429584503173828 0.20263424515724182
vt 0.40075376629829407 0
vt 0.6407034993171692 0
vt 0.40075376629829407 0.20263424515724182
vt 0.6407034993171692 0
vt 0.6407034993171692 0.20263424515724182
vt 0.40075376629829407 0.20263424515724182
vt 0 0
vt 0.8429584503173828 0
vt 0 0.20263424515724182
vt 0.8429584503173828 0
vt 0.8429584503173828 0.20263424515724182
vt 0 0.20263424515724182
vt 0.6407034993171692 0
vt 1.0226130485534668 0
vt 0.6407034993171692 0.20263424515724182
vt 1.0226130485534668 0
vt 1.0226130485534668 0.20263424515724182
vt 0.6407034993171692 0.20263424515724182
vt 0.8429584503173828 0
vt 1 0
vt 0.8429584503173828 0.20263424515724182
vt 1 0
vt 1 0.20263424515724182
vt 0.8429584503173828 0.20263424515724182
vn 0 0 -0.6304842829704285
vn 0 0 -0.6304842829704285
vn 0 0 -0.6304842829704285
vn 0 0 -0.6304842829704285
vn 0 0 -0.6304842829704285
vn 0 0 -0.6304842829704285
vn 0 0 -0.6304842829704285
vn 0 0 -0.6304842829704285
vn 0 0 -0.6304842829704285
vn 0 0 -0.6304842829704285
vn 0 0 -0.6304842829704285
vn 0 0 -0.6304842829704285
vn 0 0 -0.6304842829704285
vn 0 0 -0.6304842829704285
vn 0 0 -0.6304842829704285
vn 0 0 -0.6304842829704285
vn 0 0 -0.6304842829704285
vn 0 0 -0.6304842829704285
vn 0 0 0.6304842829704285
vn 0 0 0.6304842829704285
vn 0 0 0.6304842829704285
vn 0 0 0.6304842829704285
vn 0 0 0.6304842829704285
vn 0 0 0.6304842829704285
vn 0 0 0.6304842829704285
vn 0 0 0.6304842829704285
vn 0 0 0.6304842829704285
vn 0 0 0.6304842829704285
vn 0 0 0.6304842829704285
vn 0 0 0.6304842829704285
vn 0 0 0.6304842829704285
vn 0 0 0.6304842829704285
vn 0 0 0.6304842829704285
vn 0 0 0.6304842829704285
vn 0 0 0.6304842829704285
vn 0 0 0.6304842829704285
vn 0.20757456675479524 0.5470953755389019 0
vn -0.05542801261446728 0.5843569494322765 0
vn 0.05542801261446728 0.5843569494322765 0
vn -0.05542801261446728 0.5843569494322765 0
vn -0.20757456675479524 0.5470953755389019 0
vn 0.05542801261446728 0.5843569494322765 0
vn -0.05542801261446728 0.5843569494322765 0
vn -0.4103720434343323 -0.40899697653458134 0
vn -0.20757456675479524 0.5470953755389019 0
vn -0.4103720434343323 -0.40899697653458134 0
vn -0.1426219030805882 -0.568576022014895 0
vn -0.20757456675479524 0.5470953755389019 0
vn -0.4103720434343323 -0.40899697653458134 0
vn -0.46340750078250537 -0.34417058113149324 0
vn -0.1426219030805882 -0.568576022014895 0
vn -0.46340750078250537 -0.34417058113149324 0
vn -0.5628567736376411 -0.10450777425830893 0
vn -0.1426219030805882 -0.568576022014895 0
vn -0.46340750078250537 -0.34417058113149324 0
vn -0.5682600219247078 -0.06695217168271483 0
vn -0.5628567736376411 -0.10450777425830893 0
vn -0.5682600219247078 -0.06695217168271483 0
vn -0.5198192553033678 -0.2449795922427711 0
vn -0.5628567736376411 -0.10450777425830893 0
vn -0.5682600219247078 -0.06695217168271483 0
vn 0.5198192553033678 -0.2449795922427711 0
vn -0.5198192553033678 -0.2449795922427711 0
vn 0.5198192553033678 -0.2449795922427711 0
vn 0.5682600219247078 -0.06695217168271483 0
vn -0.5198192553033678 -0.2449795922427711 0
vn 0.5198192553033678 -0.2449795922427711 0
vn 0.5626782268362014 -0.10551589509418591 0
vn 0.5682600219247078 -0.06695217168271483 0
vn 0.5626782268362014 -0.10551589509418591 0
vn 0.46182066054454296 -0.34641058136003267 0
vn 0.5682600219247078 -0.06695217168271483 0
vn 0.5626782268362014 -0.10551589509418591 0
vn 0.14130074368794165 -0.5689234881879202 0
vn 0.46182066054454296 -0.34641058136003267 0
vn 0.14130074368794165 -0.5689234881879202 0
vn 0.4083917660971501 -0.41108005881369536 0
vn 0.46182066054454296 -0.34641058136003267 0
vn 0.14130074368794165 -0.5689234881879202 0
vn 0.20757456675479524 0.5470953755389019 0
vn 0.4083917660971501 -0.41108005881369536 0
vn 0.20757456675479524 0.5470953755389019 0
vn 0.05542801261446728 0.5843569494322765 0
vn 0.4083917660971501 -0.41108005881369536 0
f 25/25/25 26/26/26 27/27/27
f 28/28/28 29/29/29 30/30/30
f 31/31/31 32/32/32 33/33/33
f 34/34/34 35/35/35 36/36/36
f 37/37/37 38/38/38 39/39/39
f 40/40/40 41/41/41 42/42/42
f 43/43/43 44/44/44 45/45/45
f 46/46/46 47/47/47 48/48/48
f 49/49/49 50/50/50 51/51/51
f 52/52/52 53/53/53 54/54/54
f 55/55/55 56/56/56 57/57/57
f 58/58/58 59/59/59 60/60/60
f 61/61/61 62/62/62 63/63/63
f 64/64/64 65/65/65 66/66/66
f 67/67/67 68/68/68 69/69/69
f 70/70/70 71/71/71 72/72/72
f 73/73/73 74/74/74 75/75/75
f 76/76/76 77/77/77 78/78/78
f 79/79/79 80/80/80 81/81/81
f 82/82/82 83/83/83 84/84/84
f 85/85/85 86/86/86 87/87/87
f 88/88/88 89/89/89 90/90/90
f 91/91/91 92/92/92 93/93/93
f 94/94/94 95/95/95 96/96/96
f 97/97/97 98/98/98 99/99/99
f 100/100/100 101/101/101 102/102/102
f 103/103/103 104/104/104 105/105/105
f 106/106/106 107/107/107 108/108/108
o 
v 69.18354332447052 79.04400163888931 -4.244461536407471
v 69.18354332447052 79.04400163888931 -35.79932737350464
v 69.18354332447052 40.7560014128685 -4.244461536407471
v 69.18354332447052 40.7560014128685 -35.79932737350464
v 30.81645667552948 79.04400163888931 -35.79932737350464
v 30.81645667552948 79.04400163888931 -4.244461536407471
v 30.81645667552948 40.7560014128685 -35.79932737350464
v 30.81645667552948 40.7560014128685 -4.244461536407471
v 30.81645667552948 79.04400163888931 -35.79932737350464
v 69.18354332447052 79.04400163888931 -35.79932737350464
v 30.81645667552948 79.04400163888931 -4.244461536407471
v 69.18354332447052 79.04400163888931 -4.244461536407471
v 30.81645667552948 40.7560014128685 -4.244461536407471
v 69.18354332447052 40.7560014128685 -4.244461536407471
v 30.81645667552948 40.7560014128685 -35.79932737350464
v 69.18354332447052 40.7560014128685 -35.79932737350464
v 30.81645667552948 79.04400163888931 -4.244461536407471
v 69.18354332447052 79.04400163888931 -4.244461536407471
v 30.81645667552948 40.7560014128685 -4.244461536407471
v 69.18354332447052 40.7560014128685 -4.244461536407471
v 69.18354332447052 79.04400163888931 -35.79932737350464
v 30.81645667552948 79.04400163888931 -35.79932737350464
v 69.18354332447052 40.7560014128685 -35.79932737350464
v 30.81645667552948 40.7560014128685 -35.79932737350464
vt 0 1
vt 1 1
vt 0 0
vt 1 0
vt 0 1
vt 1 1
vt 0 0
vt 1 0
vt 0 1
vt 1 1
vt 0 0
vt 1 0
vt 0 1
vt 1 1
vt 0 0
vt 1 0
vt 0 1
vt 1 1
vt 0 0
vt 1 0
vt 0 1
vt 1 1
vt 0 0
vt 1 0
vn 2.606400728225708 0 0
vn 2.606400728225708 0 0
vn 2.606400728225708 0 0
vn 2.606400728225708 0 0
vn -2.606400728225708 0 0
vn -2.606400728225708 0 0
vn -2.606400728225708 0 0
vn -2.606400728225708 0 0
vn 0 2.6117844581604004 0
vn 0 2.6117844581604004 0
vn 0 2.6117844581604004 0
vn 0 2.6117844581604004 0
vn 0 -2.6117844581604004 0
vn 0 -2.6117844581604004 0
vn 0 -2.6117844581604004 0
vn 0 -2.6117844581604004 0
vn 0 0 3.1690833568573
vn 0 0 3.1690833568573
vn 0 0 3.1690833568573
vn 0 0 3.1690833568573
vn 0 0 -3.1690833568573
vn 0 0 -3.1690833568573
vn 0 0 -3.1690833568573
vn 0 0 -3.1690833568573
f 109/109/109 111/111/111 110/110/110
f 111/111/111 112/112/112 110/110/110
f 113/113/113 115/115/115 114/114/114
f 115/115/115 116/116/116 114/114/114
f 117/117/117 119/119/119 118/118/118
f 119/119/119 120/120/120 118/118/118
f 121/121/121 123/123/123 122/122/122
f 123/123/123 124/124/124 122/122/122
f 125/125/125 127/127/127 126/126/126
f 127/127/127 128/128/128 126/126/126
f 129/129/129 131/131/131 130/130/130
f 131/131/131 132/132/132 130/130/130
